<svg width="950" height="530" viewBox="-10 -10 950 530" xmlns="http://www.w3.org/2000/svg" class="schemascii"><g class="wire"><polyline points="630,15 630,0 0,0" fill="transparent" stroke-width="2" stroke="black"></polyline><polyline points="915,0 630,0" fill="transparent" stroke-width="2" stroke="black"></polyline><polyline points="540,15 540,0" fill="transparent" stroke-width="2" stroke="black"></polyline><polyline points="450,15 450,0" fill="transparent" stroke-width="2" stroke="black"></polyline><polyline points="795,150 795,135 420,135 420,0" fill="transparent" stroke-width="2" stroke="black"></polyline><polyline points="705,150 705,135" fill="transparent" stroke-width="2" stroke="black"></polyline><polyline points="615,150 615,135" fill="transparent" stroke-width="2" stroke="black"></polyline><polyline points="510,150 510,135" fill="transparent" stroke-width="2" stroke="black"></polyline><polyline points="420,150 420,135" fill="transparent" stroke-width="2" stroke="black"></polyline><polyline points="270,15 270,0" fill="transparent" stroke-width="2" stroke="black"></polyline><polyline points="45,270 45,150 135,150 135,0" fill="transparent" stroke-width="2" stroke="black"></polyline><polyline points="45,15 45,0" fill="transparent" stroke-width="2" stroke="black"></polyline></g><g class="wire"><polyline points="375,90 450,90 450,45" fill="transparent" stroke-width="2" stroke="black"></polyline><polyline points="795,90 450,90" fill="transparent" stroke-width="2" stroke="black"></polyline></g><g class="wire"><polyline points="375,75 540,75 540,45" fill="transparent" stroke-width="2" stroke="black"></polyline><polyline points="795,75 540,75" fill="transparent" stroke-width="2" stroke="black"></polyline></g><g class="wire"><polyline points="375,60 630,60 630,45" fill="transparent" stroke-width="2" stroke="black"></polyline><polyline points="795,60 630,60" fill="transparent" stroke-width="2" stroke="black"></polyline></g><g class="wire"><polyline points="150,60 120,60" fill="transparent" stroke-width="2" stroke="black"></polyline></g><g class="wire"><polyline points="150,75 120,75" fill="transparent" stroke-width="2" stroke="black"></polyline></g><g class="wire"><polyline points="420,255 420,180 375,180" fill="transparent" stroke-width="2" stroke="black"></polyline></g><g class="wire"><polyline points="510,255 510,180" fill="transparent" stroke-width="2" stroke="black"></polyline><polyline points="375,195 510,195" fill="transparent" stroke-width="2" stroke="black"></polyline></g><g class="wire"><polyline points="615,255 615,180" fill="transparent" stroke-width="2" stroke="black"></polyline><polyline points="375,210 615,210" fill="transparent" stroke-width="2" stroke="black"></polyline></g><g class="wire"><polyline points="705,255 705,180" fill="transparent" stroke-width="2" stroke="black"></polyline><polyline points="375,225 705,225" fill="transparent" stroke-width="2" stroke="black"></polyline></g><g class="wire"><polyline points="795,255 795,180" fill="transparent" stroke-width="2" stroke="black"></polyline><polyline points="375,240 795,240" fill="transparent" stroke-width="2" stroke="black"></polyline></g><g class="wire"><polyline points="150,315 120,315" fill="transparent" stroke-width="2" stroke="black"></polyline></g><g class="wire"><polyline points="150,330 120,330" fill="transparent" stroke-width="2" stroke="black"></polyline></g><g class="component U"><rect x="0" y="30" width="105" height="60" stroke-width="2" stroke="black" fill="transparent"></rect><polyline points="45,15 45,30" fill="transparent" stroke-width="2" stroke="black"></polyline><polyline points="120,60 105,60" fill="transparent" stroke-width="2" stroke="black"></polyline><polyline points="120,75 105,75" fill="transparent" stroke-width="2" stroke="black"></polyline><polyline points="45,105 45,90" fill="transparent" stroke-width="2" stroke="black"></polyline><text x="52.5" y="60" text-anchor="middle" font-size="15" fill="black"><tspan class="part-num">PMOD_OLED</tspan></text><text x="52.5" y="45" text-anchor="middle" font-size="15" fill="black"><tspan class="cmp-id">U2</tspan></text><text x="45" y="105" text-anchor="start" font-size="15" fill="black" class="pin-label"></text><text x="120" y="75" text-anchor="middle" font-size="15" fill="black" class="pin-label">SCK</text><text x="120" y="60" text-anchor="middle" font-size="15" fill="black" class="pin-label">MOSI</text><text x="45" y="15" text-anchor="start" font-size="15" fill="black" class="pin-label"></text></g><g class="component U"><rect x="165" y="30" width="195" height="315" stroke-width="2" stroke="black" fill="transparent"></rect><polyline points="270,15 270,30" fill="transparent" stroke-width="2" stroke="black"></polyline><polyline points="375,60 360,60" fill="transparent" stroke-width="2" stroke="black"></polyline><polyline points="375,75 360,75" fill="transparent" stroke-width="2" stroke="black"></polyline><polyline points="375,90 360,90" fill="transparent" stroke-width="2" stroke="black"></polyline><polyline points="375,180 360,180" fill="transparent" stroke-width="2" stroke="black"></polyline><polyline points="375,195 360,195" fill="transparent" stroke-width="2" stroke="black"></polyline><polyline points="375,210 360,210" fill="transparent" stroke-width="2" stroke="black"></polyline><polyline points="375,225 360,225" fill="transparent" stroke-width="2" stroke="black"></polyline><polyline points="375,240 360,240" fill="transparent" stroke-width="2" stroke="black"></polyline><polyline points="255,360 255,345" fill="transparent" stroke-width="2" stroke="black"></polyline><polyline points="150,60 165,60" fill="transparent" stroke-width="2" stroke="black"></polyline><polyline points="150,75 165,75" fill="transparent" stroke-width="2" stroke="black"></polyline><polyline points="150,315 165,315" fill="transparent" stroke-width="2" stroke="black"></polyline><polyline points="150,330 165,330" fill="transparent" stroke-width="2" stroke="black"></polyline><text x="262.5" y="187.5" text-anchor="middle" font-size="15" fill="black"><tspan class="part-num">ESP32</tspan></text><text x="262.5" y="172.5" text-anchor="middle" font-size="15" fill="black"><tspan class="cmp-id">U1</tspan></text><text x="150" y="60" text-anchor="middle" font-size="15" fill="black" class="pin-label"></text><text x="150" y="75" text-anchor="middle" font-size="15" fill="black" class="pin-label"></text><text x="150" y="315" text-anchor="middle" font-size="15" fill="black" class="pin-label"></text><text x="150" y="330" text-anchor="middle" font-size="15" fill="black" class="pin-label"></text><text x="255" y="360" text-anchor="start" font-size="15" fill="black" class="pin-label"></text><text x="375" y="240" text-anchor="middle" font-size="15" fill="black" class="pin-label">36</text><text x="375" y="225" text-anchor="middle" font-size="15" fill="black" class="pin-label">39</text><text x="375" y="210" text-anchor="middle" font-size="15" fill="black" class="pin-label">34</text><text x="375" y="195" text-anchor="middle" font-size="15" fill="black" class="pin-label">25</text><text x="375" y="180" text-anchor="middle" font-size="15" fill="black" class="pin-label">27</text><text x="375" y="90" text-anchor="middle" font-size="15" fill="black" class="pin-label">32</text><text x="375" y="75" text-anchor="middle" font-size="15" fill="black" class="pin-label">35</text><text x="375" y="60" text-anchor="middle" font-size="15" fill="black" class="pin-label">33</text><text x="270" y="15" text-anchor="start" font-size="15" fill="black" class="pin-label">3V3</text></g><g class="component U"><rect x="810" y="45" width="75" height="60" stroke-width="2" stroke="black" fill="transparent"></rect><polyline points="840,120 840,105" fill="transparent" stroke-width="2" stroke="black"></polyline><polyline points="870,120 870,105" fill="transparent" stroke-width="2" stroke="black"></polyline><polyline points="795,60 810,60" fill="transparent" stroke-width="2" stroke="black"></polyline><polyline points="795,75 810,75" fill="transparent" stroke-width="2" stroke="black"></polyline><polyline points="795,90 810,90" fill="transparent" stroke-width="2" stroke="black"></polyline><text x="847.5" y="75" text-anchor="middle" font-size="15" fill="black"><tspan class="part-num">Encoder</tspan></text><text x="847.5" y="60" text-anchor="middle" font-size="15" fill="black"><tspan class="cmp-id">U4</tspan></text><text x="795" y="60" text-anchor="middle" font-size="15" fill="black" class="pin-label">Button</text><text x="795" y="75" text-anchor="middle" font-size="15" fill="black" class="pin-label">A</text><text x="795" y="90" text-anchor="middle" font-size="15" fill="black" class="pin-label">B</text></g><g class="component U"><rect x="0" y="285" width="105" height="60" stroke-width="2" stroke="black" fill="transparent"></rect><polyline points="45,270 45,285" fill="transparent" stroke-width="2" stroke="black"></polyline><polyline points="120,315 105,315" fill="transparent" stroke-width="2" stroke="black"></polyline><polyline points="120,330 105,330" fill="transparent" stroke-width="2" stroke="black"></polyline><polyline points="45,360 45,345" fill="transparent" stroke-width="2" stroke="black"></polyline><text x="52.5" y="315" text-anchor="middle" font-size="15" fill="black"><tspan class="part-num">MPU6050</tspan></text><text x="52.5" y="300" text-anchor="middle" font-size="15" fill="black"><tspan class="cmp-id">U3</tspan></text><text x="45" y="360" text-anchor="start" font-size="15" fill="black" class="pin-label"></text><text x="120" y="330" text-anchor="middle" font-size="15" fill="black" class="pin-label">SDA</text><text x="120" y="315" text-anchor="middle" font-size="15" fill="black" class="pin-label">SCL</text><text x="45" y="270" text-anchor="start" font-size="15" fill="black" class="pin-label">3V3</text></g><g class="component R"><polyline points="450,15 446.25,18.75 453.75,22.5 446.25,26.25 453.75,30 446.25,33.75 453.75,37.5 446.25,41.25 450,45" fill="transparent" stroke-width="2" stroke="black"></polyline><text x="457.5" y="30" text-anchor="start" font-size="15" fill="black"><tspan class="cmp-id">R1</tspan> <tspan class="cmp-value">5.1 kΩ</tspan></text></g><g class="component R"><polyline points="540,15 536.25,18.75 543.75,22.5 536.25,26.25 543.75,30 536.25,33.75 543.75,37.5 536.25,41.25 540,45" fill="transparent" stroke-width="2" stroke="black"></polyline><text x="547.5" y="30" text-anchor="start" font-size="15" fill="black"><tspan class="cmp-id">R2</tspan> <tspan class="cmp-value">5.1 kΩ</tspan></text></g><g class="component R"><polyline points="630,15 626.25,18.75 633.75,22.5 626.25,26.25 633.75,30 626.25,33.75 633.75,37.5 626.25,41.25 630,45" fill="transparent" stroke-width="2" stroke="black"></polyline><text x="637.5" y="30" text-anchor="start" font-size="15" fill="black"><tspan class="cmp-id">R3</tspan> <tspan class="cmp-value">5.1 kΩ</tspan></text></g><g class="component G"><polyline points="47.4,127.5 42.6,127.5" fill="transparent" stroke-width="2" stroke="black"></polyline><polyline points="49.95,123.75 40.05,123.75" fill="transparent" stroke-width="2" stroke="black"></polyline><polyline points="52.5,120 37.5,120" fill="transparent" stroke-width="2" stroke="black"></polyline><polyline points="45,105 45,120" fill="transparent" stroke-width="2" stroke="black"></polyline></g><g class="component G"><polyline points="842.4,142.5 837.6,142.5" fill="transparent" stroke-width="2" stroke="black"></polyline><polyline points="844.95,138.75 835.05,138.75" fill="transparent" stroke-width="2" stroke="black"></polyline><polyline points="847.5,135 832.5,135" fill="transparent" stroke-width="2" stroke="black"></polyline><polyline points="840,120 840,135" fill="transparent" stroke-width="2" stroke="black"></polyline></g><g class="component G"><polyline points="872.4,142.5 867.6,142.5" fill="transparent" stroke-width="2" stroke="black"></polyline><polyline points="874.95,138.75 865.05,138.75" fill="transparent" stroke-width="2" stroke="black"></polyline><polyline points="877.5,135 862.5,135" fill="transparent" stroke-width="2" stroke="black"></polyline><polyline points="870,120 870,135" fill="transparent" stroke-width="2" stroke="black"></polyline></g><g class="component R"><polyline points="420,150 416.25,153.75 423.75,157.5 416.25,161.25 423.75,165 416.25,168.75 423.75,172.5 416.25,176.25 420,180" fill="transparent" stroke-width="2" stroke="black"></polyline><text x="427.5" y="165" text-anchor="start" font-size="15" fill="black"><tspan class="cmp-id">R4</tspan> <tspan class="cmp-value">5.1 kΩ</tspan></text></g><g class="component R"><polyline points="510,150 506.25,153.75 513.75,157.5 506.25,161.25 513.75,165 506.25,168.75 513.75,172.5 506.25,176.25 510,180" fill="transparent" stroke-width="2" stroke="black"></polyline><text x="517.5" y="165" text-anchor="start" font-size="15" fill="black"><tspan class="cmp-id">R5</tspan> <tspan class="cmp-value">5.1 kΩ</tspan></text></g><g class="component R"><polyline points="615,150 611.25,153.75 618.75,157.5 611.25,161.25 618.75,165 611.25,168.75 618.75,172.5 611.25,176.25 615,180" fill="transparent" stroke-width="2" stroke="black"></polyline><text x="622.5" y="165" text-anchor="start" font-size="15" fill="black"><tspan class="cmp-id">R6</tspan> <tspan class="cmp-value">100 kΩ</tspan></text></g><g class="component R"><polyline points="705,150 701.25,153.75 708.75,157.5 701.25,161.25 708.75,165 701.25,168.75 708.75,172.5 701.25,176.25 705,180" fill="transparent" stroke-width="2" stroke="black"></polyline><text x="712.5" y="165" text-anchor="start" font-size="15" fill="black"><tspan class="cmp-id">R7</tspan> <tspan class="cmp-value">100 kΩ</tspan></text></g><g class="component R"><polyline points="795,150 791.25,153.75 798.75,157.5 791.25,161.25 798.75,165 791.25,168.75 798.75,172.5 791.25,176.25 795,180" fill="transparent" stroke-width="2" stroke="black"></polyline><text x="802.5" y="165" text-anchor="start" font-size="15" fill="black"><tspan class="cmp-id">R8</tspan> <tspan class="cmp-value">100 kΩ</tspan></text></g><g class="component S"><polyline points="412.5,285 412.5,255" fill="transparent" stroke-width="2" stroke="black"></polyline><circle cx="420" cy="285" r="3.75" stroke="transparent" fill="black" class="filled"></circle><circle cx="420" cy="255" r="3.75" stroke="transparent" fill="black" class="filled"></circle><polyline points="420,285 420,285" fill="transparent" stroke-width="2" stroke="black"></polyline><polyline points="420,255 420,255" fill="transparent" stroke-width="2" stroke="black"></polyline><polygon points="405,261 405,279 412.5,279 412.5,261" fill="black" class="filled"></polygon><text x="438.75" y="270" text-anchor="start" font-size="15" fill="black"><tspan class="cmp-id">S1</tspan> <tspan class="part-num">back</tspan></text></g><g class="component S"><polyline points="502.5,285 502.5,255" fill="transparent" stroke-width="2" stroke="black"></polyline><circle cx="510" cy="285" r="3.75" stroke="transparent" fill="black" class="filled"></circle><circle cx="510" cy="255" r="3.75" stroke="transparent" fill="black" class="filled"></circle><polyline points="510,285 510,285" fill="transparent" stroke-width="2" stroke="black"></polyline><polyline points="510,255 510,255" fill="transparent" stroke-width="2" stroke="black"></polyline><polygon points="495,261 495,279 502.5,279 502.5,261" fill="black" class="filled"></polygon><text x="528.75" y="270" text-anchor="start" font-size="15" fill="black"><tspan class="cmp-id">S2</tspan> <tspan class="part-num">forward</tspan></text></g><g class="component RV"><polyline points="615,255 611.25,258.75 618.75,262.5 611.25,266.25 618.75,270 611.25,273.75 618.75,277.5 611.25,281.25 615,285" fill="transparent" stroke-width="2" stroke="black"></polyline><polyline points="625.61,280.61 604.39,259.39 605.57,266.8" fill="transparent" stroke-width="2" stroke="black"></polyline><polyline points="604.39,259.39 611.8,260.57" fill="transparent" stroke-width="2" stroke="black"></polyline><text x="622.5" y="270" text-anchor="start" font-size="15" fill="black"><tspan class="cmp-id">RV1</tspan> <tspan class="cmp-value">thumb</tspan></text></g><g class="component RV"><polyline points="705,255 701.25,258.75 708.75,262.5 701.25,266.25 708.75,270 701.25,273.75 708.75,277.5 701.25,281.25 705,285" fill="transparent" stroke-width="2" stroke="black"></polyline><polyline points="715.61,280.61 694.39,259.39 695.57,266.8" fill="transparent" stroke-width="2" stroke="black"></polyline><polyline points="694.39,259.39 701.8,260.57" fill="transparent" stroke-width="2" stroke="black"></polyline><text x="712.5" y="270" text-anchor="start" font-size="15" fill="black"><tspan class="cmp-id">RV2</tspan> <tspan class="cmp-value">index</tspan></text></g><g class="component RV"><polyline points="795,255 791.25,258.75 798.75,262.5 791.25,266.25 798.75,270 791.25,273.75 798.75,277.5 791.25,281.25 795,285" fill="transparent" stroke-width="2" stroke="black"></polyline><polyline points="805.61,280.61 784.39,259.39 785.57,266.8" fill="transparent" stroke-width="2" stroke="black"></polyline><polyline points="784.39,259.39 791.8,260.57" fill="transparent" stroke-width="2" stroke="black"></polyline><text x="802.5" y="270" text-anchor="start" font-size="15" fill="black"><tspan class="cmp-id">RV3</tspan> <tspan class="cmp-value">middle</tspan></text></g><g class="component G"><polyline points="422.4,307.5 417.6,307.5" fill="transparent" stroke-width="2" stroke="black"></polyline><polyline points="424.95,303.75 415.05,303.75" fill="transparent" stroke-width="2" stroke="black"></polyline><polyline points="427.5,300 412.5,300" fill="transparent" stroke-width="2" stroke="black"></polyline><polyline points="420,285 420,300" fill="transparent" stroke-width="2" stroke="black"></polyline></g><g class="component G"><polyline points="512.4,307.5 507.6,307.5" fill="transparent" stroke-width="2" stroke="black"></polyline><polyline points="514.95,303.75 505.05,303.75" fill="transparent" stroke-width="2" stroke="black"></polyline><polyline points="517.5,300 502.5,300" fill="transparent" stroke-width="2" stroke="black"></polyline><polyline points="510,285 510,300" fill="transparent" stroke-width="2" stroke="black"></polyline></g><g class="component G"><polyline points="617.4,307.5 612.6,307.5" fill="transparent" stroke-width="2" stroke="black"></polyline><polyline points="619.95,303.75 610.05,303.75" fill="transparent" stroke-width="2" stroke="black"></polyline><polyline points="622.5,300 607.5,300" fill="transparent" stroke-width="2" stroke="black"></polyline><polyline points="615,285 615,300" fill="transparent" stroke-width="2" stroke="black"></polyline></g><g class="component G"><polyline points="707.4,307.5 702.6,307.5" fill="transparent" stroke-width="2" stroke="black"></polyline><polyline points="709.95,303.75 700.05,303.75" fill="transparent" stroke-width="2" stroke="black"></polyline><polyline points="712.5,300 697.5,300" fill="transparent" stroke-width="2" stroke="black"></polyline><polyline points="705,285 705,300" fill="transparent" stroke-width="2" stroke="black"></polyline></g><g class="component G"><polyline points="797.4,307.5 792.6,307.5" fill="transparent" stroke-width="2" stroke="black"></polyline><polyline points="799.95,303.75 790.05,303.75" fill="transparent" stroke-width="2" stroke="black"></polyline><polyline points="802.5,300 787.5,300" fill="transparent" stroke-width="2" stroke="black"></polyline><polyline points="795,285 795,300" fill="transparent" stroke-width="2" stroke="black"></polyline></g><g class="component G"><polyline points="47.4,382.5 42.6,382.5" fill="transparent" stroke-width="2" stroke="black"></polyline><polyline points="49.95,378.75 40.05,378.75" fill="transparent" stroke-width="2" stroke="black"></polyline><polyline points="52.5,375 37.5,375" fill="transparent" stroke-width="2" stroke="black"></polyline><polyline points="45,360 45,375" fill="transparent" stroke-width="2" stroke="black"></polyline></g><g class="component G"><polyline points="257.4,382.5 252.6,382.5" fill="transparent" stroke-width="2" stroke="black"></polyline><polyline points="259.95,378.75 250.05,378.75" fill="transparent" stroke-width="2" stroke="black"></polyline><polyline points="262.5,375 247.5,375" fill="transparent" stroke-width="2" stroke="black"></polyline><polyline points="255,360 255,375" fill="transparent" stroke-width="2" stroke="black"></polyline></g></svg>